<svg width="120" height="25" viewBox="0 0 120 25" fill="none" xmlns="http://www.w3.org/2000/svg">
<g clip-path="url(#clip0_396_46134)">
<path d="M84.9799 12.3054C84.9814 12.2489 84.9704 12.1927 84.9478 12.1409C84.9253 12.0891 84.8917 12.0428 84.8494 12.0054C84.7692 11.9437 84.6696 11.9129 84.5687 11.9186H84.0811L80.3223 20.4703L79.3424 15.8894C79.2858 15.4868 78.9634 15.212 78.5836 15.2341H77.9513L74.9836 20.4206L75.0127 12.3291C75.0151 12.2697 75.0043 12.2106 74.981 12.1559C74.9578 12.1013 74.9226 12.0526 74.8782 12.0133C74.793 11.9465 74.6866 11.9129 74.5786 11.9186H73.9448V21.6395H74.7524V21.6379L74.7697 21.6395C75.0072 21.6418 75.2218 21.5818 75.3972 21.4539C75.5568 21.3395 75.6945 21.18 75.8156 20.9874L78.4137 16.3338L79.4958 21.6387H80.1894C80.6313 21.6387 81.0009 21.3805 81.1944 20.94L84.9296 12.5075C84.9564 12.438 84.9784 12.3938 84.9799 12.3054ZM119.034 11.9178H115.037C113.171 11.9226 112.973 13.4619 112.965 14.1874C112.965 14.9507 113.517 15.5586 113.793 15.8057L116.513 18.481C116.837 18.7991 116.993 19.1757 116.993 19.5246C116.993 20.1167 116.543 20.6014 115.814 20.5982C115.813 20.603 112.292 20.6037 112.259 20.6132C112.144 20.6345 112.023 20.7869 112.026 20.9077H112.015L112.026 20.9124V21.6418H115.981C117.849 21.6347 118.045 20.0993 118.055 19.3738L118.054 19.3675C118.055 18.3634 117.134 17.5866 117.128 17.5834L114.548 15.0344C114.225 14.7155 114.027 14.3887 114.025 14.0358C114.027 13.4414 114.478 12.9598 115.203 12.9598C115.207 12.9583 118.769 12.9551 118.798 12.9464L118.807 12.9725L118.799 12.9464C118.915 12.9243 119.038 12.772 119.035 12.6512C119.035 12.6512 119.034 12.6496 119.035 12.648L119.034 11.9178ZM90.5136 12.8935C88.7372 12.7949 86.7076 13.8448 86.0093 16.6788C85.322 19.4575 86.607 20.8074 88.3472 21.0316L88.5281 21.0395C90.3249 21.1358 92.2366 20.0843 92.9089 17.2503C93.5663 14.4708 92.2791 13.0743 90.5136 12.8935ZM93.9477 17.334C93.2943 20.0969 91.3102 22.2781 88.1443 22.0326V22.031C85.1978 21.6892 84.354 19.0865 84.9752 16.5935C85.6617 13.8329 87.6379 11.6526 90.759 11.8949V11.8981C93.6654 12.2383 94.5359 14.8434 93.9477 17.334ZM111.581 12.011C111.503 11.9573 111.409 11.931 111.315 11.936H110.843L105.859 16.2146L106.522 12.4333C106.54 12.3579 106.536 12.2787 106.51 12.2056C106.484 12.1324 106.438 12.0684 106.376 12.0212C106.289 11.9549 106.182 11.9188 106.073 11.9186H105.593L103.793 21.6395H104.859L105.647 17.3371L109.593 21.6418H110.065C110.16 21.6456 110.253 21.6185 110.33 21.5645C110.37 21.5331 110.402 21.4928 110.423 21.4469C110.445 21.401 110.455 21.3507 110.454 21.3C110.454 21.1255 110.312 20.9495 110.312 20.9495L106.577 16.8761L111.562 12.6259C111.562 12.6259 111.702 12.5059 111.702 12.2754C111.704 12.225 111.693 12.175 111.672 12.1291C111.651 12.0833 111.62 12.0429 111.581 12.011ZM101.575 13.394C101.38 13.2046 101.083 13.1138 100.623 13.0269C100.444 12.9997 100.263 12.9825 100.082 12.9756C99.5278 12.9448 97.8812 12.9701 97.3771 12.9741L96.7386 16.5106C97.1176 16.5162 97.5517 16.5217 97.8576 16.5233C98.7194 16.5233 99.553 16.4956 100.143 16.3338C101.66 15.9217 102.412 14.1945 101.575 13.394ZM102.553 12.8067C102.985 13.2985 103.017 14.2119 102.894 14.7747C102.745 15.4615 102.094 17.1958 99.6544 17.4145L101.709 20.9495C101.709 20.9495 101.849 21.1603 101.849 21.3C101.851 21.3924 101.81 21.5068 101.727 21.5645C101.65 21.6193 101.557 21.6466 101.463 21.6418H100.921L98.5103 17.4721L96.5687 17.4635L95.8154 21.6418H94.7491L96.5514 11.9186H99.0395C100.51 11.9186 101.8 11.9407 102.553 12.8067ZM30.9404 13.9948C30.8193 14.7779 31.0592 15.6967 31.9281 16.3062L35.0233 18.4747C35.348 18.6997 35.5085 18.8552 35.4691 19.1181C35.4109 19.4812 35.2222 19.6272 34.5805 19.6272H30.9805C30.5952 19.6272 30.386 19.8167 30.316 20.2532V21.6H34.5334C36.3813 21.6 37.2959 20.5059 37.4807 19.3423C37.6537 18.2489 37.2872 17.4674 36.5842 16.9638L33.294 14.62C33.0298 14.4297 32.9638 14.3311 32.9826 14.1874C33.0117 13.949 33.2288 13.8511 33.6031 13.8511H37.3619C37.8212 13.8511 38.083 13.3798 38.1562 12.9125V11.8776H33.1863C32.083 11.8776 31.1189 12.8675 30.9404 13.9948ZM68.4103 11.876H63.1966L63.1707 12.0331C63.0488 12.6922 63.1031 13.4572 64.1434 13.4572H68.0045C69.5332 13.4572 70.1183 14.5679 69.7393 16.6511C69.3917 18.56 68.3678 20.018 66.8116 20.018H64.7183L65.7115 14.5497H63.9311C63.6913 14.5497 63.5261 14.725 63.4986 14.8805L62.2766 21.5984H66.3594C69.3736 21.5984 71.4756 20.1735 72.1267 16.5809C72.63 13.8203 71.485 11.876 68.4103 11.876ZM56.0336 20.0196H51.9193L53.341 12.2075C53.3477 12.1666 53.3453 12.1246 53.3341 12.0847C53.3229 12.0447 53.3031 12.0077 53.2761 11.9763C53.2492 11.9448 53.2156 11.9197 53.1779 11.9026C53.1402 11.8856 53.0993 11.877 53.0579 11.8776H51.2477L49.4792 21.5984H56.2954L56.4724 20.6274C56.551 20.1917 56.4055 20.0196 56.0336 20.0196ZM61.1623 11.876H59.3513L57.5827 21.5984H59.7358L61.4446 12.206C61.4516 12.1649 61.4494 12.1229 61.4383 12.0828C61.4272 12.0427 61.4074 12.0056 61.3804 11.9741C61.3533 11.9426 61.3197 11.9174 61.2819 11.9005C61.244 11.8835 61.2037 11.8752 61.1623 11.876ZM44.4157 13.5424C42.4506 13.5424 41.4212 14.6895 41.0524 16.9448C40.6836 19.2049 41.3378 20.3488 43.3022 20.3488C45.2666 20.3488 46.2951 19.2041 46.6639 16.9448C47.0335 14.6895 46.3808 13.5424 44.4157 13.5424ZM48.8021 16.9448C48.3499 19.7054 46.4902 22.0168 43.0301 22.0168C39.5677 22.0168 38.4636 19.7054 38.9158 16.9448C39.3664 14.1858 41.2277 11.8768 44.6886 11.8768C48.1486 11.8768 49.2542 14.1858 48.8021 16.9448ZM23.6429 8.49018C21.5849 8.15073 17.9063 8.01969 16.6481 9.95533C15.6769 11.4505 17.5131 13.4982 19.1849 15.482C20.5249 17.0711 21.9828 18.5892 21.3876 19.4765C20.9016 20.2019 17.7852 20.2004 16.711 20.258C15.408 20.3267 13.5301 20.3306 13.2022 20.5106C12.9081 20.6685 12.7445 21.1619 13.847 21.36C14.7333 21.5203 16.8447 21.8447 19.0709 21.8431C21.3946 21.8431 23.8363 21.4603 24.3656 19.6541C24.791 18.2031 23.3157 16.648 22.0182 15.0715C20.5988 13.3443 19.1598 12.1136 19.2817 10.8908C19.3737 9.93875 21.2319 9.88507 24.316 9.8306C24.9569 9.81876 26.234 9.78798 25.9878 9.27959C25.7684 8.83041 24.813 8.682 23.6429 8.49018ZM14.1576 12.7964C12.8381 11.8878 10.4853 11.5839 8.54924 11.6849C6.82472 11.7757 3.85931 12.3267 3.97098 12.8746C4.07635 13.4666 5.95263 13.2827 6.81293 13.2827C8.70415 13.2827 11.7057 13.3988 12.1783 14.6216C13.1975 17.2582 6.28448 21.99 4.81004 21.5353C4.14319 21.3308 6.16496 17.8905 6.89785 16.6543C7.33351 15.9154 7.99799 14.7558 7.4318 14.676C6.79799 14.5884 6.10047 15.6802 5.64674 16.3101C4.41685 18.0208 3.15787 19.8893 2.14738 21.8084C1.83361 22.4012 0.797961 24.1853 1.1534 24.4158C1.48604 24.6305 3.06665 24.325 5.0774 23.5246C11.3998 21.0127 14.2465 17.7382 15.0093 15.0328C15.2767 14.08 14.8143 13.2488 14.1576 12.7964ZM9.463 1.24177C9.33404 0.814697 11.4423 0.259739 13.755 0.157115C16.085 0.054491 18.8413 0.519456 19.3556 2.06276C20.197 4.59126 15.9301 8.27861 12.2129 10.0911C11.3008 10.5332 10.7495 10.6555 10.5183 10.6248C10.2997 10.5955 10.2651 10.3903 10.3367 10.249C10.468 9.98296 11.0696 9.44142 11.8709 8.85252C16.056 5.78327 17.4164 3.53186 16.6261 2.62088C16.1189 2.03671 13.998 1.62937 11.7946 1.62937C11.197 1.62937 9.62578 1.76042 9.463 1.24256" fill="#EE2722"/>
</g>
<defs>
<clipPath id="clip0_396_46134">
<rect width="119.073" height="24.5761" fill="white" transform="translate(0.381836 0.0544434)"/>
</clipPath>
</defs>
</svg>
