<svg width="54" height="40" viewBox="0 0 54 40" fill="none" xmlns="http://www.w3.org/2000/svg">
<path d="M15.0001 0.666667C15.3503 0.404023 15.7488 0.212927 16.1728 0.104288C16.5969 -0.00435051 17.0382 -0.0284041 17.4715 0.0335017C17.9048 0.0954074 18.3217 0.24206 18.6984 0.465085C19.0751 0.688111 19.4041 0.983143 19.6668 1.33333C19.9294 1.68353 20.1205 2.08202 20.2291 2.50606C20.3378 2.93011 20.3618 3.3714 20.2999 3.80474C20.238 4.23808 20.0914 4.65498 19.8683 5.03165C19.6453 5.40831 19.3503 5.73736 19.0001 6C13.7868 9.91 10.8001 13.7133 9.09009 17.0333C11.438 16.4289 13.9159 16.571 16.1793 17.4398C18.4427 18.3087 20.3792 19.861 21.7197 21.8812C23.0602 23.9014 23.738 26.289 23.6589 28.7121C23.5799 31.1353 22.7479 33.4736 21.2786 35.4021C19.8093 37.3306 17.7757 38.7534 15.4604 39.4729C13.1452 40.1923 10.6633 40.1726 8.3598 39.4164C6.05629 38.6603 4.04557 37.2053 2.60712 35.2536C1.16867 33.302 0.373949 30.9508 0.333427 28.5267C-0.0936984 24.4331 0.487662 20.2972 2.02676 16.48C4.01676 11.46 7.90676 5.98667 15.0001 0.666667ZM45.0001 0.666667C45.3503 0.404023 45.7488 0.212927 46.1728 0.104288C46.5969 -0.00435051 47.0382 -0.0284041 47.4715 0.0335017C47.9048 0.0954074 48.3217 0.24206 48.6984 0.465085C49.0751 0.688111 49.4041 0.983143 49.6668 1.33333C49.9294 1.68353 50.1205 2.08202 50.2291 2.50606C50.3378 2.93011 50.3618 3.3714 50.2999 3.80474C50.238 4.23808 50.0914 4.65498 49.8683 5.03165C49.6453 5.40831 49.3503 5.73736 49.0001 6C43.7868 9.91 40.8001 13.7133 39.0901 17.0333C41.438 16.4289 43.9159 16.571 46.1793 17.4398C48.4427 18.3087 50.3792 19.861 51.7197 21.8812C53.0602 23.9014 53.738 26.289 53.6589 28.7121C53.5799 31.1353 52.7479 33.4736 51.2786 35.4021C49.8093 37.3306 47.7757 38.7534 45.4604 39.4729C43.1452 40.1923 40.6633 40.1726 38.3598 39.4164C36.0563 38.6603 34.0456 37.2053 32.6071 35.2536C31.1687 33.302 30.3739 30.9508 30.3334 28.5267C29.9063 24.4331 30.4877 20.2972 32.0268 16.48C34.0201 11.46 37.9068 5.98667 45.0001 0.666667Z" fill="#9D9D9D"/>
</svg>
