<svg width="20" height="20" viewBox="0 0 20 20" fill="none" xmlns="http://www.w3.org/2000/svg">
<g clip-path="url(#clip0_945_7974)">
<path d="M8.39064 10.5416H7.77153V9.37914C7.77153 8.78641 7.43563 8.24636 6.90215 7.96971C5.4071 7.20573 3.53999 7.20573 2.04824 7.96971C1.5115 8.24631 1.17887 8.7831 1.17887 9.37914V10.5416H0.556553C0.227234 10.5613 -0.0822704 10.8412 0.019811 11.243L1.48848 16.6403H1.19869C0.892444 16.6403 0.642181 16.8872 0.642181 17.1968C0.642181 17.5063 0.895755 17.7566 1.202 17.7566H7.7485C8.05475 17.7566 8.30501 17.5096 8.30501 17.2001C8.30501 16.8938 8.05806 16.6436 7.7485 16.6436H7.45871L8.92738 11.2463C9.02951 10.8609 8.72327 10.558 8.39064 10.5416ZM2.64433 16.6435L1.28763 11.6546H7.66292L6.30622 16.6402H2.64433V16.6435ZM2.28542 9.38571C2.28542 9.21119 2.3875 9.04982 2.54887 8.9675C3.73437 8.36159 5.20961 8.36159 6.3918 8.9675C6.55643 9.04982 6.65525 9.21119 6.65525 9.38571V10.5481H2.28542V9.38571Z" fill="white"/>
<path d="M4.47532 6.87982C5.48299 6.87982 6.29633 6.05985 6.29633 5.0588C6.29633 4.05113 5.47637 3.23779 4.47532 3.23779C3.46765 3.23779 2.65431 4.05776 2.65431 5.0588C2.65095 6.06311 3.47091 6.87982 4.47532 6.87982ZM4.47532 4.34087C4.8705 4.34087 5.18663 4.66031 5.18663 5.05218C5.18663 5.44737 4.86719 5.76349 4.47532 5.76349C4.08345 5.76349 3.76401 5.44405 3.76401 5.05218C3.7607 4.66031 4.08014 4.34087 4.47532 4.34087Z" fill="white"/>
<path d="M16.3862 15.478C17.361 15.478 18.1612 14.6844 18.1612 13.7031C18.1612 12.7284 17.3675 11.9282 16.3862 11.9282C15.405 11.9282 14.6113 12.7218 14.6113 13.7031C14.6113 14.6844 15.4049 15.478 16.3862 15.478ZM16.3862 13.0412C16.7518 13.0412 17.0481 13.3409 17.0481 13.7031C17.0481 14.0686 16.7485 14.365 16.3862 14.365C16.0207 14.365 15.7243 14.0653 15.7243 13.7031C15.721 13.3409 16.0207 13.0412 16.3862 13.0412Z" fill="white"/>
<path d="M19.9957 19.3539C19.9496 17.4011 18.3492 15.8303 16.3865 15.8303C14.3942 15.8303 12.7773 17.4505 12.7773 19.4395C12.7773 19.7457 13.0243 19.996 13.3338 19.996H19.4424C19.4457 19.996 19.4457 19.996 19.4457 19.996C19.8639 19.9927 20.0319 19.6437 19.9957 19.3539ZM13.9464 18.883C14.1967 17.7732 15.1978 16.9401 16.3833 16.9401C17.572 16.9401 18.5665 17.7733 18.8201 18.883H13.9464Z" fill="white"/>
<path d="M16.2283 5.60229H11.4139C11.1077 5.60229 10.8574 5.84925 10.8574 6.1588V8.86564C10.8574 9.17188 11.1044 9.42215 11.4139 9.42215H13.2119L14.9276 10.8348C15.2569 11.0752 15.8167 10.9534 15.8364 10.4331L15.8891 9.41883H16.225C16.5312 9.41883 16.7815 9.17188 16.7815 8.86233V6.15549C16.7848 5.84925 16.5346 5.60229 16.2283 5.60229ZM15.6718 8.30913H15.3656C15.0692 8.30913 14.8255 8.54294 14.8091 8.83599L14.786 9.27727L13.7652 8.43755C13.6664 8.35523 13.5412 8.31239 13.4095 8.31239H11.9639V6.71526H15.6652V8.30908L15.6718 8.30913Z" fill="white"/>
<path d="M12.5829 3.26749V0.560657C12.5829 0.254413 12.336 0.00415039 12.0264 0.00415039H7.21862C6.91237 0.00415039 6.66211 0.251102 6.66211 0.560657V3.26749C6.66211 3.57374 6.90906 3.824 7.21862 3.824H7.55451L7.60718 4.83824C7.64339 5.24657 8.09456 5.54293 8.51603 5.24L10.2317 3.82731H12.0297C12.336 3.82405 12.5829 3.57048 12.5829 3.26749ZM9.6785 2.8394L8.65769 3.67913L8.63461 3.23785C8.61816 2.94149 8.37447 2.71099 8.07811 2.71099H7.77186V1.11716H11.4732V2.7143H10.0276C9.90243 2.71099 9.77727 2.75709 9.6785 2.8394Z" fill="white"/>
</g>
<defs>
<clipPath id="clip0_945_7974">
<rect width="20" height="20" fill="white"/>
</clipPath>
</defs>
</svg>
